<svg width="999" height="984" viewBox="0 0 999 984" fill="none" xmlns="http://www.w3.org/2000/svg">
<path d="M497.21 0.896767L2.20828 248.894C0.854719 249.572 0 250.956 0 252.47V746.528C0 748.043 0.85601 749.428 2.21115 750.106L144.211 821.106C146.871 822.435 150 820.501 150 817.528V327.469C150 325.956 150.854 324.572 152.207 323.893L320.207 239.653C322.867 238.319 326 240.253 326 243.228V353.122C326 354.587 325.198 355.936 323.911 356.636L202.089 422.864C200.802 423.564 200 424.913 200 426.378V571.6C200 572.507 200.308 573.386 200.873 574.094L325.127 729.906C325.692 730.614 326 731.493 326 732.4V908.528C326 910.043 326.856 911.428 328.211 912.106L470.211 983.106C472.871 984.435 476 982.501 476 979.528V674.48C476 673.525 475.658 672.602 475.037 671.877L329.129 501.651C327.502 499.752 327.996 496.842 330.159 495.588L474.007 412.156C475.241 411.44 476 410.122 476 408.696V164.002C476 162.488 476.854 161.105 478.207 160.426L497.21 150.898C498.337 150.333 499.664 150.332 500.791 150.896L847.211 324.106C848.337 324.669 849.663 324.669 850.789 324.106L991.845 253.578C994.793 252.104 994.793 247.896 991.845 246.422L500.791 0.895323C499.664 0.331764 498.337 0.332304 497.21 0.896767Z" fill="black"/>
<path d="M999 746.528V306.453C999 303.484 995.88 301.55 993.221 302.87L849.704 374.15C849.239 374.381 848.824 374.7 848.481 375.09L764.755 470.232C762.927 472.311 759.59 471.947 758.251 469.524L674.572 318.035C674.199 317.359 673.638 316.806 672.957 316.442L529.887 239.897C527.222 238.472 524 240.402 524 243.424V979.528C524 982.501 527.129 984.435 529.789 983.106L671.789 912.106C673.144 911.428 674 910.043 674 908.528V583.692C674 579.993 678.59 578.276 681.018 581.066L757.999 669.551C759.588 671.377 762.421 671.385 764.02 669.568L841.997 580.958C844.433 578.189 849 579.912 849 583.6V817.528C849 820.501 852.129 822.435 854.789 821.106L996.789 750.106C998.144 749.428 999 748.043 999 746.528Z" fill="black"/>
</svg>
